<svg width="512" height="512" viewBox="0 0 512 512" fill="none" xmlns="http://www.w3.org/2000/svg"><defs><linearGradient id="g" x1="70" y1="70" x2="442" y2="442"><stop stop-color="#FFE08A"/><stop offset=".5" stop-color="#F2C14E"/><stop offset="1" stop-color="#FF7A3D"/></linearGradient><linearGradient id="t" x1="160" y1="150" x2="360" y2="360"><stop stop-color="#76E4FF"/><stop offset=".45" stop-color="#1AE0CF"/><stop offset="1" stop-color="#7C5CFF"/></linearGradient></defs><rect width="512" height="512" rx="104" fill="#070A10"/><path d="M72 116C72 93.9 89.9 76 112 76H212C236.3 76 256 95.7 256 120V416H142C103.3 416 72 384.7 72 346V116Z" fill="#121824" stroke="url(#g)" stroke-width="12"/><path d="M256 120C256 95.7 275.7 76 300 76H400C422.1 76 440 93.9 440 116V346C440 384.7 408.7 416 370 416H256V120Z" fill="#0E1520" stroke="url(#g)" stroke-width="12"/><path d="M220 158L354 256L220 354V158Z" fill="url(#t)" stroke="#FDF6D8" stroke-width="8"/></svg>
