<svg width="1200" height="360" viewBox="0 0 1200 360" fill="none" xmlns="http://www.w3.org/2000/svg">
<defs><linearGradient id="g" x1="90" y1="40" x2="640" y2="330"><stop stop-color="#FFE08A"/><stop offset=".5" stop-color="#F2C14E"/><stop offset="1" stop-color="#FF7A3D"/></linearGradient><linearGradient id="t" x1="180" y1="80" x2="590" y2="300"><stop stop-color="#76E4FF"/><stop offset=".45" stop-color="#1AE0CF"/><stop offset="1" stop-color="#7C5CFF"/></linearGradient></defs>
<rect width="1200" height="360" rx="44" fill="#070A10"/>
<path d="M106 91C106 73.3 120.3 59 138 59H312C349.6 59 380 89.4 380 127V303H178C138.2 303 106 270.8 106 231V91Z" fill="#121824" stroke="url(#g)" stroke-width="8"/>
<path d="M380 127C380 89.4 410.4 59 448 59H622C639.7 59 654 73.3 654 91V231C654 270.8 621.8 303 582 303H380V127Z" fill="#0E1520" stroke="url(#g)" stroke-width="8"/>
<path d="M326 111L528 181L326 251V111Z" fill="url(#t)" stroke="#FDF6D8" stroke-width="6"/>
<path d="M174 136H290M174 178H290M174 220H255" stroke="#F2C14E" stroke-width="12" stroke-linecap="round"/>
<path d="M470 136H586M470 178H586M470 220H550" stroke="#1AE0CF" stroke-width="12" stroke-linecap="round"/>
<text x="710" y="164" font-family="Inter, Segoe UI, Arial" font-size="86" font-weight="900" letter-spacing="-5" fill="#FDF6D8">look<tspan fill="#F2C14E">BOOK</tspan></text>
<text x="716" y="218" font-family="Inter, Segoe UI, Arial" font-size="28" font-weight="800" letter-spacing="3" fill="#1AE0CF">BOOK-TO-ANIMATION COMPILER</text>
<text x="716" y="262" font-family="Inter, Segoe UI, Arial" font-size="22" fill="#AAA695">Extract characters. Preserve scene intent. Generate true animation packets.</text>
</svg>
